/vscmnt/brussel_pixiu_data/_data_brussel/112/vsc11236/PredSimResults/SUBJ10opt3D/weighted-expIG/worker_04.mot
version=1
nRows=5
nColumns=50
inDegrees=yes
endheader
                time	         pelvis_tilt	         pelvis_list	     pelvis_rotation	           pelvis_tx	           pelvis_ty	           pelvis_tz	       hip_flexion_r	     hip_adduction_r	      hip_rotation_r	        knee_angle_r	       ankle_angle_r	         mtp_angle_r	       hip_flexion_l	     hip_adduction_l	      hip_rotation_l	        knee_angle_l	       ankle_angle_l	         mtp_angle_l	    lumbar_extension	      lumbar_bending	     lumbar_rotation	 ercspn_r/activation	 intobl_r/activation	 extobl_r/activation	    abd_r/activation	    add_r/activation	hamstrings_r/activation	bifemsh_r/activation	glut_max_r/activation	iliopsoas_r/activation	rect_fem_r/activation	  vasti_r/activation	gastroc_r/activation	 soleus_r/activation	tib_ant_r/activation	 ercspn_l/activation	 intobl_l/activation	 extobl_l/activation	    abd_l/activation	    add_l/activation	hamstrings_l/activation	bifemsh_l/activation	glut_max_l/activation	iliopsoas_l/activation	rect_fem_l/activation	  vasti_l/activation	gastroc_l/activation	 soleus_l/activation	tib_ant_l/activation	
          0.00000000	         -4.48836629	         -1.11646782	          6.50807531	          0.00000000	          0.82543329	         -0.01421419	         30.05226105	         -1.21161049	         -5.08877009	         -5.81778753	          2.81667410	          0.25460017	        -13.72040107	         -0.47662571	         -0.25397248	         -6.44538430	          9.82415371	         25.29025003	         -5.85677644	         -0.84310933	         -6.78558793	          0.11749211	          0.16364724	          0.01000001	          0.01000005	          0.15217163	          0.12126388	          0.16637225	          0.02623840	          0.11246171	          0.01000004	          0.01000001	          0.01000001	          0.01000000	          0.27329695	          0.05472358	          0.00999999	          0.01000000	          0.07609821	          0.01000002	          0.01132624	          0.24467642	          0.02391076	          0.49599384	          0.01000003	          0.01000000	          0.33557238	          0.27541312	          0.02533016	
          0.01225939	         -4.53722954	         -1.07951902	          6.64148887	          0.01525386	          0.82376922	         -0.01369524	         30.16137381	         -1.08342660	         -4.96474877	         -7.63907427	          2.51864279	          0.25208249	        -13.85179036	         -0.59649517	         -0.61473196	         -8.05290674	          9.36025185	         26.95411346	         -5.60602063	         -0.34032576	         -7.16887715	          0.10646331	          0.13588316	          0.01000002	          0.00999999	          0.21663351	          0.10253726	          0.13814707	          0.06375831	          0.09338167	          0.01000003	          0.01000000	          0.01450429	          0.01204325	          0.29431463	          0.09770569	          0.00999999	          0.01000000	          0.06318753	          0.01414350	          0.01555684	          0.20316510	          0.02450725	          0.44355633	          0.01000004	          0.01000000	          0.30865323	          0.26950476	          0.02103269	
          0.02451879	         -4.57382116	         -1.06882428	          6.74717767	          0.03092725	          0.82233150	         -0.01309461	         30.05579386	         -0.95887833	         -4.74133238	         -9.29249645	          2.14900334	          0.24249126	        -13.85350510	         -0.76119916	         -0.99653904	         -9.94486211	          8.73600893	         28.65563005	         -5.31992671	          0.19780799	         -7.52763821	          0.08840097	          0.11282949	          0.01000001	          0.01310534	          0.17987989	          0.08660838	          0.11470935	          0.10223347	          0.07753871	          0.01000000	          0.01000000	          0.01204353	          0.01000002	          0.36313682	          0.11312477	          0.00999999	          0.01000000	          0.05246725	          0.01664340	          0.01650930	          0.16869651	          0.02034940	          0.36830344	          0.01000002	          0.01000000	          0.27307300	          0.25747223	          0.01746433	
          0.03677818	         -4.60003204	         -1.07411826	          6.81753169	          0.04682568	          0.82123254	         -0.01234543	         29.78525242	         -0.81757518	         -4.59674736	        -10.67129918	          1.68548447	          0.23184249	        -13.68040971	         -0.96311763	         -1.40185171	        -12.16370487	          7.91040734	         30.34748543	         -5.02084407	          0.74508118	         -7.85496055	          0.10340509	          0.09368705	          0.01000001	          0.05505651	          0.17938882	          0.07499793	          0.09524799	          0.11347954	          0.06438364	          0.01000001	          0.01000000	          0.01000025	          0.01000000	          0.41218331	          0.12618925	          0.00999999	          0.01000000	          0.04356576	          0.01381975	          0.01371057	          0.14007580	          0.01689696	          0.30581778	          0.01000002	          0.01000000	          0.22674395	          0.24009548	          0.01450136	
          0.04903757	         -4.61668654	         -1.08037393	          6.85346092	          0.06274783	          0.82056135	         -0.01146783	         29.44958030	         -0.67374560	         -4.55152601	        -11.96123563	          1.26728963	          0.22039531	        -13.29468512	         -1.18653016	         -1.83335772	        -14.74022989	          6.86570614	         31.92263949	         -4.72940450	          1.28585069	         -8.14428898	          0.10537028	          0.07779228	          0.01000001	          0.09373202	          0.20731202	          0.06723706	          0.07908841	          0.11596557	          0.05346043	          0.01000001	          0.01772327	          0.01000001	          0.01000000	          0.43807801	          0.15223060	          0.00999999	          0.01000000	          0.03617447	          0.02661224	          0.02175050	          0.11631083	          0.01403026	          0.25393331	          0.01000001	          0.00999999	          0.18827500	          0.21864524	          0.01204109	
